<mxfile host="65bd71144e">
    <diagram id="R2lEEEUBdFMjLlhIrx00" name="Page-1">
        <mxGraphModel dx="857" dy="467" grid="0" gridSize="10" guides="1" tooltips="1" connect="1" arrows="0" fold="1" page="1" pageScale="1" pageWidth="1169" pageHeight="827" math="0" shadow="0" extFonts="Permanent Marker^https://fonts.googleapis.com/css?family=Permanent+Marker">
            <root>
                <mxCell id="0"/>
                <mxCell id="1" parent="0"/>
                <mxCell id="-JPUo0-ZmxXkv4KaRfed-3" value="Location" style="swimlane;childLayout=stackLayout;horizontal=1;startSize=50;horizontalStack=0;rounded=1;fontSize=14;fontStyle=0;strokeWidth=2;resizeParent=0;resizeLast=1;shadow=0;dashed=0;align=center;arcSize=4;whiteSpace=wrap;html=1;fillColor=#1ba1e2;strokeColor=#006EAF;fontColor=#ffffff;" parent="1" vertex="1">
                    <mxGeometry x="41" y="110" width="170" height="120" as="geometry">
                        <mxRectangle x="180" y="170" width="110" height="50" as="alternateBounds"/>
                    </mxGeometry>
                </mxCell>
                <mxCell id="-JPUo0-ZmxXkv4KaRfed-4" value="# LocationCode&lt;br&gt;&lt;div&gt;&lt;span style=&quot;background-color: initial;&quot;&gt;* StreetAddress&lt;/span&gt;&lt;/div&gt;&lt;div&gt;&lt;span style=&quot;background-color: initial;&quot;&gt;* City&lt;/span&gt;&lt;/div&gt;&lt;div&gt;&lt;span style=&quot;background-color: initial;&quot;&gt;* ZipCode&lt;/span&gt;&lt;/div&gt;&lt;div&gt;&lt;br&gt;&lt;/div&gt;" style="align=left;strokeColor=none;fillColor=none;spacingLeft=4;fontSize=12;verticalAlign=top;resizable=0;rotatable=0;part=1;html=1;" parent="-JPUo0-ZmxXkv4KaRfed-3" vertex="1">
                    <mxGeometry y="50" width="170" height="70" as="geometry"/>
                </mxCell>
                <mxCell id="-JPUo0-ZmxXkv4KaRfed-24" value="Project" style="swimlane;childLayout=stackLayout;horizontal=1;startSize=50;horizontalStack=0;rounded=1;fontSize=14;fontStyle=0;strokeWidth=2;resizeParent=0;resizeLast=1;shadow=0;dashed=0;align=center;arcSize=4;whiteSpace=wrap;html=1;fillColor=#1ba1e2;strokeColor=#006EAF;fontColor=#ffffff;" parent="1" vertex="1">
                    <mxGeometry x="153" y="303.5" width="170" height="114" as="geometry"/>
                </mxCell>
                <mxCell id="-JPUo0-ZmxXkv4KaRfed-25" value="&lt;div&gt;# ProjectNumber&lt;/div&gt;&lt;div&gt;* ProjectName&lt;/div&gt;&lt;div&gt;* StartDate&lt;/div&gt;&lt;div&gt;&lt;br&gt;&lt;/div&gt;" style="align=left;strokeColor=none;fillColor=none;spacingLeft=4;fontSize=12;verticalAlign=top;resizable=0;rotatable=0;part=1;html=1;" parent="-JPUo0-ZmxXkv4KaRfed-24" vertex="1">
                    <mxGeometry y="50" width="170" height="64" as="geometry"/>
                </mxCell>
                <mxCell id="-JPUo0-ZmxXkv4KaRfed-26" value="Employee" style="swimlane;childLayout=stackLayout;horizontal=1;startSize=50;horizontalStack=0;rounded=1;fontSize=14;fontStyle=0;strokeWidth=2;resizeParent=0;resizeLast=1;shadow=0;dashed=0;align=center;arcSize=4;whiteSpace=wrap;html=1;fillColor=#1ba1e2;strokeColor=#006EAF;fontColor=#ffffff;" parent="1" vertex="1">
                    <mxGeometry x="705" y="112" width="170" height="252" as="geometry"/>
                </mxCell>
                <mxCell id="-JPUo0-ZmxXkv4KaRfed-27" value="&lt;div&gt;# EmployeeID&lt;/div&gt;&lt;div&gt;* SupervisorID&lt;/div&gt;&lt;div&gt;* JobTitle&lt;/div&gt;&lt;div&gt;* FirstName&lt;/div&gt;&lt;div&gt;* LastName&lt;/div&gt;&lt;div&gt;* NationalInsuranceNumber&lt;/div&gt;&lt;div&gt;* StreetAddress&lt;/div&gt;&lt;div&gt;* Salary&lt;/div&gt;&lt;div&gt;* DateOfBirth&lt;/div&gt;&lt;div&gt;* Email&lt;/div&gt;&lt;div&gt;* PhoneNumber&lt;/div&gt;&lt;div&gt;* StartDate&lt;/div&gt;&lt;div&gt;&lt;span style=&quot;background-color: initial;&quot;&gt;LeavingDate&lt;/span&gt;&lt;/div&gt;" style="align=left;strokeColor=none;fillColor=none;spacingLeft=4;fontSize=12;verticalAlign=top;resizable=0;rotatable=0;part=1;html=1;" parent="-JPUo0-ZmxXkv4KaRfed-26" vertex="1">
                    <mxGeometry y="50" width="170" height="202" as="geometry"/>
                </mxCell>
                <mxCell id="19" value="" style="edgeStyle=elbowEdgeStyle;fontSize=12;html=1;endArrow=ERoneToMany;startArrow=ERzeroToOne;fontColor=#FFFFFF;exitX=1.01;exitY=0.877;exitDx=0;exitDy=0;elbow=vertical;exitPerimeter=0;entryX=1;entryY=0.5;entryDx=0;entryDy=0;" edge="1" parent="-JPUo0-ZmxXkv4KaRfed-26" source="-JPUo0-ZmxXkv4KaRfed-27" target="-JPUo0-ZmxXkv4KaRfed-27">
                    <mxGeometry width="100" height="100" relative="1" as="geometry">
                        <mxPoint x="180" y="191" as="sourcePoint"/>
                        <mxPoint x="220" y="136.5" as="targetPoint"/>
                        <Array as="points">
                            <mxPoint x="190" y="179"/>
                            <mxPoint x="211" y="107"/>
                            <mxPoint x="208" y="119"/>
                        </Array>
                    </mxGeometry>
                </mxCell>
                <mxCell id="-JPUo0-ZmxXkv4KaRfed-28" value="Dependent" style="swimlane;childLayout=stackLayout;horizontal=1;startSize=50;horizontalStack=0;rounded=1;fontSize=14;fontStyle=0;strokeWidth=2;resizeParent=0;resizeLast=1;shadow=0;dashed=0;align=center;arcSize=4;whiteSpace=wrap;html=1;fillColor=#1ba1e2;strokeColor=#006EAF;fontColor=#ffffff;" parent="1" vertex="1">
                    <mxGeometry x="705" y="431" width="170" height="128" as="geometry"/>
                </mxCell>
                <mxCell id="-JPUo0-ZmxXkv4KaRfed-29" value="&lt;div&gt;# DependentID&lt;/div&gt;&lt;div&gt;* FirstName&lt;/div&gt;&lt;div&gt;* BirthDate&lt;/div&gt;&lt;div&gt;* Relationship&lt;/div&gt;" style="align=left;strokeColor=none;fillColor=none;spacingLeft=4;fontSize=12;verticalAlign=top;resizable=0;rotatable=0;part=1;html=1;" parent="-JPUo0-ZmxXkv4KaRfed-28" vertex="1">
                    <mxGeometry y="50" width="170" height="78" as="geometry"/>
                </mxCell>
                <mxCell id="-JPUo0-ZmxXkv4KaRfed-30" value="Customer" style="swimlane;childLayout=stackLayout;horizontal=1;startSize=50;horizontalStack=0;rounded=1;fontSize=14;fontStyle=0;strokeWidth=2;resizeParent=0;resizeLast=1;shadow=0;dashed=0;align=center;arcSize=4;whiteSpace=wrap;html=1;fillColor=#1ba1e2;strokeColor=#006EAF;fontColor=#ffffff;" parent="1" vertex="1">
                    <mxGeometry x="959" y="110" width="170" height="123" as="geometry"/>
                </mxCell>
                <mxCell id="-JPUo0-ZmxXkv4KaRfed-31" value="&lt;div&gt;# CustomerID&lt;/div&gt;&lt;div&gt;* CustomerName&lt;/div&gt;&lt;div&gt;* CustomerEmail&lt;/div&gt;&lt;div&gt;* CustomerPhone&lt;/div&gt;" style="align=left;strokeColor=none;fillColor=none;spacingLeft=4;fontSize=12;verticalAlign=top;resizable=0;rotatable=0;part=1;html=1;" parent="-JPUo0-ZmxXkv4KaRfed-30" vertex="1">
                    <mxGeometry y="50" width="170" height="73" as="geometry"/>
                </mxCell>
                <mxCell id="-JPUo0-ZmxXkv4KaRfed-32" value="Product" style="swimlane;childLayout=stackLayout;horizontal=1;startSize=50;horizontalStack=0;rounded=1;fontSize=14;fontStyle=0;strokeWidth=2;resizeParent=0;resizeLast=1;shadow=0;dashed=0;align=center;arcSize=4;whiteSpace=wrap;html=1;fillColor=#1ba1e2;strokeColor=#006EAF;fontColor=#ffffff;" parent="1" vertex="1">
                    <mxGeometry x="959" y="659.5" width="170" height="120" as="geometry"/>
                </mxCell>
                <mxCell id="-JPUo0-ZmxXkv4KaRfed-33" value="# ProductID&lt;div&gt;* ProductName&lt;/div&gt;&lt;div&gt;* ProductDescription&lt;/div&gt;&lt;div&gt;* ProductCategory&lt;/div&gt;" style="align=left;strokeColor=none;fillColor=none;spacingLeft=4;fontSize=12;verticalAlign=top;resizable=0;rotatable=0;part=1;html=1;" parent="-JPUo0-ZmxXkv4KaRfed-32" vertex="1">
                    <mxGeometry y="50" width="170" height="70" as="geometry"/>
                </mxCell>
                <mxCell id="-JPUo0-ZmxXkv4KaRfed-34" value="SalesOrder" style="swimlane;childLayout=stackLayout;horizontal=1;startSize=50;horizontalStack=0;rounded=1;fontSize=14;fontStyle=0;strokeWidth=2;resizeParent=0;resizeLast=1;shadow=0;dashed=0;align=center;arcSize=4;whiteSpace=wrap;html=1;fillColor=#1ba1e2;strokeColor=#006EAF;fontColor=#ffffff;" parent="1" vertex="1">
                    <mxGeometry x="959" y="293.5" width="170" height="120" as="geometry"/>
                </mxCell>
                <mxCell id="-JPUo0-ZmxXkv4KaRfed-35" value="&lt;div&gt;# OrderNumber&lt;/div&gt;" style="align=left;strokeColor=none;fillColor=none;spacingLeft=4;fontSize=12;verticalAlign=top;resizable=0;rotatable=0;part=1;html=1;" parent="-JPUo0-ZmxXkv4KaRfed-34" vertex="1">
                    <mxGeometry y="50" width="170" height="70" as="geometry"/>
                </mxCell>
                <mxCell id="-JPUo0-ZmxXkv4KaRfed-36" value="Warehouse" style="swimlane;childLayout=stackLayout;horizontal=1;startSize=50;horizontalStack=0;rounded=1;fontSize=14;fontStyle=0;strokeWidth=2;resizeParent=0;resizeLast=1;shadow=0;dashed=0;align=center;arcSize=4;whiteSpace=wrap;html=1;fillColor=#1ba1e2;strokeColor=#006EAF;fontColor=#ffffff;" parent="1" vertex="1">
                    <mxGeometry x="403" y="663.5" width="160" height="120.5" as="geometry">
                        <mxRectangle x="180" y="170" width="110" height="50" as="alternateBounds"/>
                    </mxGeometry>
                </mxCell>
                <mxCell id="-JPUo0-ZmxXkv4KaRfed-37" value="&lt;div&gt;# WarehouseID&lt;/div&gt;" style="align=left;strokeColor=none;fillColor=none;spacingLeft=4;fontSize=12;verticalAlign=top;resizable=0;rotatable=0;part=1;html=1;" parent="-JPUo0-ZmxXkv4KaRfed-36" vertex="1">
                    <mxGeometry y="50" width="160" height="70.5" as="geometry"/>
                </mxCell>
                <mxCell id="-JPUo0-ZmxXkv4KaRfed-38" value="Department" style="swimlane;childLayout=stackLayout;horizontal=1;startSize=50;horizontalStack=0;rounded=1;fontSize=14;fontStyle=0;strokeWidth=2;resizeParent=0;resizeLast=1;shadow=0;dashed=0;align=center;arcSize=4;whiteSpace=wrap;html=1;fillColor=#1ba1e2;strokeColor=#006EAF;labelBackgroundColor=none;labelBorderColor=none;fontColor=#ffffff;" parent="1" vertex="1">
                    <mxGeometry x="468" y="100" width="170" height="124" as="geometry">
                        <mxRectangle x="180" y="170" width="110" height="50" as="alternateBounds"/>
                    </mxGeometry>
                </mxCell>
                <mxCell id="-JPUo0-ZmxXkv4KaRfed-39" value="&lt;div&gt;# DepartmentNumber&lt;/div&gt;&lt;div&gt;* DepartmentName&lt;/div&gt;&lt;div&gt;* DepartmentManager&lt;/div&gt;&lt;div&gt;&lt;br&gt;&lt;/div&gt;&lt;div&gt;&lt;br&gt;&lt;/div&gt;" style="align=left;strokeColor=none;fillColor=none;spacingLeft=4;fontSize=12;verticalAlign=top;resizable=0;rotatable=0;part=1;html=1;" parent="-JPUo0-ZmxXkv4KaRfed-38" vertex="1">
                    <mxGeometry y="50" width="170" height="74" as="geometry"/>
                </mxCell>
                <mxCell id="-JPUo0-ZmxXkv4KaRfed-45" value="&lt;font style=&quot;font-size: 14px;&quot;&gt;EmployeeTransfer&lt;/font&gt;" style="swimlane;childLayout=stackLayout;horizontal=1;startSize=50;horizontalStack=0;rounded=1;fontSize=14;fontStyle=0;strokeWidth=2;resizeParent=0;resizeLast=1;shadow=0;dashed=0;align=center;arcSize=4;whiteSpace=wrap;html=1;fillColor=#1ba1e2;strokeColor=#006EAF;fontColor=#ffffff;" parent="1" vertex="1">
                    <mxGeometry x="395" y="304" width="170" height="97.5" as="geometry"/>
                </mxCell>
                <mxCell id="-JPUo0-ZmxXkv4KaRfed-46" value="&lt;div style=&quot;&quot;&gt;&lt;div&gt;# TransferID&lt;/div&gt;&lt;div&gt;* TransferDate&lt;/div&gt;&lt;div&gt;&lt;br&gt;&lt;/div&gt;&lt;/div&gt;" style="align=left;strokeColor=none;fillColor=none;spacingLeft=4;fontSize=12;verticalAlign=top;resizable=0;rotatable=0;part=1;html=1;" parent="-JPUo0-ZmxXkv4KaRfed-45" vertex="1">
                    <mxGeometry y="50" width="170" height="47.5" as="geometry"/>
                </mxCell>
                <mxCell id="-JPUo0-ZmxXkv4KaRfed-57" value="Assignment" style="swimlane;childLayout=stackLayout;horizontal=1;startSize=50;horizontalStack=0;rounded=1;fontSize=14;fontStyle=0;strokeWidth=2;resizeParent=0;resizeLast=1;shadow=0;dashed=0;align=center;arcSize=4;whiteSpace=wrap;html=1;fillColor=#1ba1e2;strokeColor=#006EAF;fontColor=#ffffff;" parent="1" vertex="1">
                    <mxGeometry x="395" y="449" width="170" height="108" as="geometry"/>
                </mxCell>
                <mxCell id="-JPUo0-ZmxXkv4KaRfed-58" value="&lt;div&gt;# EmployeeID&lt;/div&gt;&lt;div&gt;# ProjectNumber&lt;/div&gt;&lt;div&gt;* HoursPerWeek&lt;/div&gt;&lt;div&gt;&lt;br&gt;&lt;/div&gt;" style="align=left;strokeColor=none;fillColor=none;spacingLeft=4;fontSize=12;verticalAlign=top;resizable=0;rotatable=0;part=1;html=1;" parent="-JPUo0-ZmxXkv4KaRfed-57" vertex="1">
                    <mxGeometry y="50" width="170" height="58" as="geometry"/>
                </mxCell>
                <mxCell id="-JPUo0-ZmxXkv4KaRfed-63" value="Inventory" style="swimlane;childLayout=stackLayout;horizontal=1;startSize=50;horizontalStack=0;rounded=1;fontSize=14;fontStyle=0;strokeWidth=2;resizeParent=0;resizeLast=1;shadow=0;dashed=0;align=center;arcSize=4;whiteSpace=wrap;html=1;fillColor=#1ba1e2;strokeColor=#006EAF;fontColor=#ffffff;" parent="1" vertex="1">
                    <mxGeometry x="705" y="665.5" width="170" height="120.5" as="geometry"/>
                </mxCell>
                <mxCell id="-JPUo0-ZmxXkv4KaRfed-64" value="&lt;div&gt;# InventoryID&lt;/div&gt;&lt;div&gt;# WarehouseID&lt;br&gt;&lt;/div&gt;&lt;div&gt;* Quantity&lt;/div&gt;" style="align=left;strokeColor=none;fillColor=none;spacingLeft=4;fontSize=12;verticalAlign=top;resizable=0;rotatable=0;part=1;html=1;" parent="-JPUo0-ZmxXkv4KaRfed-63" vertex="1">
                    <mxGeometry y="50" width="170" height="70.5" as="geometry"/>
                </mxCell>
                <mxCell id="3" value="OrderDetail" style="swimlane;childLayout=stackLayout;horizontal=1;startSize=50;horizontalStack=0;rounded=1;fontSize=14;fontStyle=0;strokeWidth=2;resizeParent=0;resizeLast=1;shadow=0;dashed=0;align=center;arcSize=4;whiteSpace=wrap;html=1;fillColor=#1ba1e2;strokeColor=#006EAF;fontColor=#ffffff;" vertex="1" parent="1">
                    <mxGeometry x="959" y="481.5" width="170" height="110" as="geometry"/>
                </mxCell>
                <mxCell id="4" value="&lt;div&gt;# OrderNumber&lt;/div&gt;&lt;div&gt;# ProductID&lt;/div&gt;&lt;div&gt;* Quantity&lt;/div&gt;" style="align=left;strokeColor=none;fillColor=none;spacingLeft=4;fontSize=12;verticalAlign=top;resizable=0;rotatable=0;part=1;html=1;" vertex="1" parent="3">
                    <mxGeometry y="50" width="170" height="60" as="geometry"/>
                </mxCell>
                <mxCell id="5" value="ProductTransfer" style="swimlane;childLayout=stackLayout;horizontal=1;startSize=50;horizontalStack=0;rounded=1;fontSize=14;fontStyle=0;strokeWidth=2;resizeParent=0;resizeLast=1;shadow=0;dashed=0;align=center;arcSize=4;whiteSpace=wrap;html=1;fillColor=#1ba1e2;strokeColor=#006EAF;fontColor=#ffffff;" vertex="1" parent="1">
                    <mxGeometry x="153" y="530" width="170" height="155" as="geometry"/>
                </mxCell>
                <mxCell id="6" value="&lt;div&gt;# TransferID&lt;/div&gt;&lt;div&gt;* FromWarehouseID&lt;/div&gt;&lt;div&gt;* ToWarehouseID&lt;/div&gt;&lt;div&gt;* Quantity&lt;/div&gt;&lt;div&gt;* TransferDate&lt;/div&gt;&lt;div&gt;&lt;br&gt;&lt;/div&gt;" style="align=left;strokeColor=none;fillColor=none;spacingLeft=4;fontSize=12;verticalAlign=top;resizable=0;rotatable=0;part=1;html=1;" vertex="1" parent="5">
                    <mxGeometry y="50" width="170" height="105" as="geometry"/>
                </mxCell>
                <mxCell id="9" value="Hires" style="text;html=1;align=center;verticalAlign=middle;whiteSpace=wrap;rounded=0;labelBackgroundColor=none;labelBorderColor=none;fontSize=10;" vertex="1" parent="1">
                    <mxGeometry x="622.5" y="140" width="60" height="30" as="geometry"/>
                </mxCell>
                <mxCell id="10" value="" style="edgeStyle=entityRelationEdgeStyle;fontSize=12;html=1;endArrow=ERoneToMany;startArrow=ERmandOne;fontColor=#000000;exitX=1;exitY=0.25;exitDx=0;exitDy=0;entryX=0;entryY=0.25;entryDx=0;entryDy=0;" edge="1" parent="1" source="-JPUo0-ZmxXkv4KaRfed-39" target="-JPUo0-ZmxXkv4KaRfed-27">
                    <mxGeometry width="100" height="100" relative="1" as="geometry">
                        <mxPoint x="597" y="273.5" as="sourcePoint"/>
                        <mxPoint x="497" y="273" as="targetPoint"/>
                    </mxGeometry>
                </mxCell>
                <mxCell id="11" value="Hired by" style="text;html=1;align=center;verticalAlign=middle;whiteSpace=wrap;rounded=0;labelBackgroundColor=none;labelBorderColor=none;fontSize=10;" vertex="1" parent="1">
                    <mxGeometry x="652" y="209" width="60" height="30" as="geometry"/>
                </mxCell>
                <mxCell id="14" value="" style="edgeStyle=elbowEdgeStyle;fontSize=12;html=1;endArrow=ERoneToMany;startArrow=ERmandOne;fontColor=#000000;exitX=0.25;exitY=1;exitDx=0;exitDy=0;entryX=0.5;entryY=0;entryDx=0;entryDy=0;elbow=vertical;" edge="1" parent="1" source="-JPUo0-ZmxXkv4KaRfed-39" target="-JPUo0-ZmxXkv4KaRfed-24">
                    <mxGeometry width="100" height="100" relative="1" as="geometry">
                        <mxPoint x="436" y="257" as="sourcePoint"/>
                        <mxPoint x="336" y="256.5" as="targetPoint"/>
                    </mxGeometry>
                </mxCell>
                <mxCell id="15" value="" style="fontSize=12;html=1;endArrow=ERzeroToMany;startArrow=ERmandOne;fontColor=#FFFFFF;exitX=0.5;exitY=1;exitDx=0;exitDy=0;entryX=0.5;entryY=0;entryDx=0;entryDy=0;" edge="1" parent="1" source="-JPUo0-ZmxXkv4KaRfed-27" target="-JPUo0-ZmxXkv4KaRfed-28">
                    <mxGeometry width="100" height="100" relative="1" as="geometry">
                        <mxPoint x="448" y="417" as="sourcePoint"/>
                        <mxPoint x="788" y="414" as="targetPoint"/>
                    </mxGeometry>
                </mxCell>
                <mxCell id="17" value="Supports" style="text;html=1;align=center;verticalAlign=middle;whiteSpace=wrap;rounded=0;labelBackgroundColor=none;labelBorderColor=none;fontSize=10;" vertex="1" parent="1">
                    <mxGeometry x="732" y="359" width="60" height="30" as="geometry"/>
                </mxCell>
                <mxCell id="18" value="Supported by" style="text;html=1;align=center;verticalAlign=middle;whiteSpace=wrap;rounded=0;labelBackgroundColor=none;labelBorderColor=none;fontSize=10;" vertex="1" parent="1">
                    <mxGeometry x="792" y="403.5" width="71" height="30" as="geometry"/>
                </mxCell>
                <mxCell id="20" value="Supervises" style="text;html=1;align=center;verticalAlign=middle;whiteSpace=wrap;rounded=0;labelBackgroundColor=none;labelBorderColor=none;fontSize=10;" vertex="1" parent="1">
                    <mxGeometry x="875" y="338.5" width="60" height="30" as="geometry"/>
                </mxCell>
                <mxCell id="21" value="Supervided by" style="text;html=1;align=center;verticalAlign=middle;whiteSpace=wrap;rounded=0;labelBackgroundColor=none;labelBorderColor=none;fontSize=10;rotation=0;" vertex="1" parent="1">
                    <mxGeometry x="875" y="236" width="63" height="30" as="geometry"/>
                </mxCell>
                <mxCell id="23" value="" style="fontSize=12;html=1;endArrow=ERzeroToMany;startArrow=ERmandOne;fontColor=#FFFFFF;exitX=0.5;exitY=1;exitDx=0;exitDy=0;entryX=0.75;entryY=0;entryDx=0;entryDy=0;edgeStyle=elbowEdgeStyle;elbow=vertical;" edge="1" parent="1" source="-JPUo0-ZmxXkv4KaRfed-39" target="-JPUo0-ZmxXkv4KaRfed-45">
                    <mxGeometry width="100" height="100" relative="1" as="geometry">
                        <mxPoint x="365" y="272.5" as="sourcePoint"/>
                        <mxPoint x="365" y="333.5" as="targetPoint"/>
                    </mxGeometry>
                </mxCell>
                <mxCell id="27" value="Controls" style="text;html=1;align=center;verticalAlign=middle;whiteSpace=wrap;rounded=0;labelBackgroundColor=none;labelBorderColor=none;fontSize=10;" vertex="1" parent="1">
                    <mxGeometry x="457" y="224" width="60" height="30" as="geometry"/>
                </mxCell>
                <mxCell id="28" value="Controled by" style="text;html=1;align=center;verticalAlign=middle;whiteSpace=wrap;rounded=0;labelBackgroundColor=none;labelBorderColor=none;fontSize=10;" vertex="1" parent="1">
                    <mxGeometry x="246" y="278" width="60" height="30" as="geometry"/>
                </mxCell>
                <mxCell id="29" value="" style="edgeStyle=orthogonalEdgeStyle;fontSize=12;html=1;endArrow=ERoneToMany;startArrow=none;fontColor=#000000;exitX=0.5;exitY=1;exitDx=0;exitDy=0;entryX=1;entryY=0.25;entryDx=0;entryDy=0;" edge="1" parent="1" source="32" target="-JPUo0-ZmxXkv4KaRfed-58">
                    <mxGeometry width="100" height="100" relative="1" as="geometry">
                        <mxPoint x="629" y="371.5" as="sourcePoint"/>
                        <mxPoint x="589" y="482.5" as="targetPoint"/>
                    </mxGeometry>
                </mxCell>
                <mxCell id="30" value="" style="fontSize=12;html=1;endArrow=ERzeroToMany;startArrow=none;fontColor=#FFFFFF;exitX=-0.008;exitY=0.56;exitDx=0;exitDy=0;entryX=1;entryY=0.25;entryDx=0;entryDy=0;edgeStyle=elbowEdgeStyle;exitPerimeter=0;" edge="1" parent="1" source="80" target="-JPUo0-ZmxXkv4KaRfed-45">
                    <mxGeometry width="100" height="100" relative="1" as="geometry">
                        <mxPoint x="490" y="264" as="sourcePoint"/>
                        <mxPoint x="490" y="302.5" as="targetPoint"/>
                    </mxGeometry>
                </mxCell>
                <mxCell id="31" value="" style="fontSize=12;html=1;endArrow=ERoneToMany;startArrow=none;fontColor=#000000;entryX=0;entryY=0.25;entryDx=0;entryDy=0;exitX=0.5;exitY=1;exitDx=0;exitDy=0;edgeStyle=elbowEdgeStyle;" edge="1" parent="1" source="35" target="-JPUo0-ZmxXkv4KaRfed-58">
                    <mxGeometry width="100" height="100" relative="1" as="geometry">
                        <mxPoint x="245" y="491.5" as="sourcePoint"/>
                        <mxPoint x="368" y="508.5" as="targetPoint"/>
                        <Array as="points">
                            <mxPoint x="350" y="475.5"/>
                        </Array>
                    </mxGeometry>
                </mxCell>
                <mxCell id="34" value="" style="edgeStyle=orthogonalEdgeStyle;fontSize=12;html=1;endArrow=none;startArrow=ERmandOne;fontColor=#000000;exitX=0;exitY=0.75;exitDx=0;exitDy=0;entryX=0.5;entryY=0;entryDx=0;entryDy=0;" edge="1" parent="1" source="-JPUo0-ZmxXkv4KaRfed-27" target="32">
                    <mxGeometry width="100" height="100" relative="1" as="geometry">
                        <mxPoint x="703" y="308.5" as="sourcePoint"/>
                        <mxPoint x="620" y="501.5" as="targetPoint"/>
                    </mxGeometry>
                </mxCell>
                <mxCell id="32" value="Assigned to" style="text;html=1;align=center;verticalAlign=middle;whiteSpace=wrap;rounded=0;labelBackgroundColor=none;labelBorderColor=none;fontSize=10;" vertex="1" parent="1">
                    <mxGeometry x="634" y="384" width="60" height="30" as="geometry"/>
                </mxCell>
                <mxCell id="36" value="" style="edgeStyle=elbowEdgeStyle;fontSize=12;html=1;endArrow=none;startArrow=ERmandOne;fontColor=#000000;exitX=1;exitY=0.5;exitDx=0;exitDy=0;entryX=0.5;entryY=0;entryDx=0;entryDy=0;" edge="1" parent="1" source="-JPUo0-ZmxXkv4KaRfed-25" target="35">
                    <mxGeometry width="100" height="100" relative="1" as="geometry">
                        <mxPoint x="323" y="374.5" as="sourcePoint"/>
                        <mxPoint x="395" y="499.5" as="targetPoint"/>
                        <Array as="points">
                            <mxPoint x="350" y="398.5"/>
                        </Array>
                    </mxGeometry>
                </mxCell>
                <mxCell id="35" value="Assigned to" style="text;html=1;align=center;verticalAlign=middle;whiteSpace=wrap;rounded=0;labelBackgroundColor=none;labelBorderColor=none;fontSize=10;" vertex="1" parent="1">
                    <mxGeometry x="319" y="432" width="60" height="30" as="geometry"/>
                </mxCell>
                <mxCell id="38" value="" style="fontSize=12;html=1;endArrow=ERoneToMany;startArrow=ERmandOne;fontColor=#000000;entryX=0.5;entryY=0;entryDx=0;entryDy=0;exitX=0.5;exitY=1;exitDx=0;exitDy=0;" edge="1" parent="1" source="-JPUo0-ZmxXkv4KaRfed-31" target="-JPUo0-ZmxXkv4KaRfed-34">
                    <mxGeometry width="100" height="100" relative="1" as="geometry">
                        <mxPoint x="1104" y="253.5" as="sourcePoint"/>
                        <mxPoint x="1120" y="255" as="targetPoint"/>
                    </mxGeometry>
                </mxCell>
                <mxCell id="39" value="" style="fontSize=12;html=1;endArrow=ERoneToMany;startArrow=ERmandOne;fontColor=#000000;entryX=0.5;entryY=0;entryDx=0;entryDy=0;exitX=0.5;exitY=1;exitDx=0;exitDy=0;" edge="1" parent="1" source="-JPUo0-ZmxXkv4KaRfed-35" target="3">
                    <mxGeometry width="100" height="100" relative="1" as="geometry">
                        <mxPoint x="1054" y="240" as="sourcePoint"/>
                        <mxPoint x="1054" y="303.5" as="targetPoint"/>
                    </mxGeometry>
                </mxCell>
                <mxCell id="40" value="" style="fontSize=12;html=1;endArrow=ERzeroToMany;startArrow=ERmandOne;fontColor=#FFFFFF;exitX=0.5;exitY=0;exitDx=0;exitDy=0;entryX=0.5;entryY=1;entryDx=0;entryDy=0;elbow=vertical;" edge="1" parent="1" source="-JPUo0-ZmxXkv4KaRfed-32" target="4">
                    <mxGeometry width="100" height="100" relative="1" as="geometry">
                        <mxPoint x="1282.14" y="622.5" as="sourcePoint"/>
                        <mxPoint x="1158" y="644.6" as="targetPoint"/>
                    </mxGeometry>
                </mxCell>
                <mxCell id="41" value="" style="fontSize=12;html=1;endArrow=ERzeroToMany;startArrow=ERmandOne;fontColor=#FFFFFF;entryX=0;entryY=0.25;entryDx=0;entryDy=0;exitX=1;exitY=0;exitDx=0;exitDy=0;edgeStyle=elbowEdgeStyle;" edge="1" parent="1" source="-JPUo0-ZmxXkv4KaRfed-27" target="-JPUo0-ZmxXkv4KaRfed-31">
                    <mxGeometry width="100" height="100" relative="1" as="geometry">
                        <mxPoint x="815" y="199.5" as="sourcePoint"/>
                        <mxPoint x="1089" y="260.1" as="targetPoint"/>
                    </mxGeometry>
                </mxCell>
                <mxCell id="42" value="" style="fontSize=12;html=1;endArrow=ERoneToMany;startArrow=none;fontColor=#000000;entryX=1;entryY=0.25;entryDx=0;entryDy=0;exitX=0;exitY=0.5;exitDx=0;exitDy=0;" edge="1" parent="1" source="59" target="-JPUo0-ZmxXkv4KaRfed-64">
                    <mxGeometry width="100" height="100" relative="1" as="geometry">
                        <mxPoint x="877" y="766.5" as="sourcePoint"/>
                        <mxPoint x="877" y="834.5" as="targetPoint"/>
                    </mxGeometry>
                </mxCell>
                <mxCell id="43" value="" style="fontSize=12;html=1;endArrow=ERoneToMany;startArrow=none;fontColor=#000000;entryX=0;entryY=0.5;entryDx=0;entryDy=0;exitX=1;exitY=0.5;exitDx=0;exitDy=0;" edge="1" parent="1" source="62" target="-JPUo0-ZmxXkv4KaRfed-63">
                    <mxGeometry width="100" height="100" relative="1" as="geometry">
                        <mxPoint x="616" y="882.5" as="sourcePoint"/>
                        <mxPoint x="529" y="816.5" as="targetPoint"/>
                    </mxGeometry>
                </mxCell>
                <mxCell id="44" value="" style="fontSize=12;html=1;endArrow=ERzeroToMany;startArrow=ERmandOne;fontColor=#FFFFFF;entryX=0;entryY=0.5;entryDx=0;entryDy=0;exitX=0.25;exitY=1;exitDx=0;exitDy=0;edgeStyle=elbowEdgeStyle;" edge="1" parent="1" source="-JPUo0-ZmxXkv4KaRfed-4" target="-JPUo0-ZmxXkv4KaRfed-37">
                    <mxGeometry width="100" height="100" relative="1" as="geometry">
                        <mxPoint x="36" y="203.5" as="sourcePoint"/>
                        <mxPoint x="123" y="191" as="targetPoint"/>
                        <Array as="points">
                            <mxPoint x="84" y="502"/>
                        </Array>
                    </mxGeometry>
                </mxCell>
                <mxCell id="45" value="Belongs to" style="text;html=1;align=center;verticalAlign=middle;whiteSpace=wrap;rounded=0;labelBackgroundColor=none;labelBorderColor=none;fontSize=10;" vertex="1" parent="1">
                    <mxGeometry x="208" y="185" width="60" height="30" as="geometry"/>
                </mxCell>
                <mxCell id="46" value="Located on" style="text;html=1;align=center;verticalAlign=middle;whiteSpace=wrap;rounded=0;labelBackgroundColor=none;labelBorderColor=none;fontSize=10;" vertex="1" parent="1">
                    <mxGeometry x="408" y="179" width="60" height="30" as="geometry"/>
                </mxCell>
                <mxCell id="47" value="Located on" style="text;html=1;align=center;verticalAlign=middle;whiteSpace=wrap;rounded=0;labelBackgroundColor=none;labelBorderColor=none;fontSize=10;" vertex="1" parent="1">
                    <mxGeometry x="340" y="722" width="60" height="30" as="geometry"/>
                </mxCell>
                <mxCell id="48" value="" style="fontSize=12;html=1;endArrow=ERzeroToMany;startArrow=none;fontColor=#FFFFFF;entryX=1;entryY=0.25;entryDx=0;entryDy=0;exitX=0;exitY=0.5;exitDx=0;exitDy=0;edgeStyle=elbowEdgeStyle;elbow=vertical;" edge="1" parent="1" source="65" target="6">
                    <mxGeometry width="100" height="100" relative="1" as="geometry">
                        <mxPoint x="133.5" y="244" as="sourcePoint"/>
                        <mxPoint x="413.0000000000002" y="749.5" as="targetPoint"/>
                        <Array as="points"/>
                    </mxGeometry>
                </mxCell>
                <mxCell id="49" value="Belongs to" style="text;html=1;align=center;verticalAlign=middle;whiteSpace=wrap;rounded=0;labelBackgroundColor=none;labelBorderColor=none;fontSize=10;" vertex="1" parent="1">
                    <mxGeometry x="86" y="224" width="60" height="30" as="geometry"/>
                </mxCell>
                <mxCell id="51" value="Answers" style="text;html=1;align=center;verticalAlign=middle;whiteSpace=wrap;rounded=0;labelBackgroundColor=none;labelBorderColor=none;fontSize=10;" vertex="1" parent="1">
                    <mxGeometry x="870" y="136" width="60" height="30" as="geometry"/>
                </mxCell>
                <mxCell id="52" value="Contacts" style="text;html=1;align=center;verticalAlign=middle;whiteSpace=wrap;rounded=0;labelBackgroundColor=none;labelBorderColor=none;fontSize=10;" vertex="1" parent="1">
                    <mxGeometry x="905" y="179" width="60" height="30" as="geometry"/>
                </mxCell>
                <mxCell id="53" value="Orders" style="text;html=1;align=center;verticalAlign=middle;whiteSpace=wrap;rounded=0;labelBackgroundColor=none;labelBorderColor=none;fontSize=10;" vertex="1" parent="1">
                    <mxGeometry x="1038" y="228" width="60" height="30" as="geometry"/>
                </mxCell>
                <mxCell id="54" value="Orded by" style="text;html=1;align=center;verticalAlign=middle;whiteSpace=wrap;rounded=0;labelBackgroundColor=none;labelBorderColor=none;fontSize=10;" vertex="1" parent="1">
                    <mxGeometry x="1045" y="266" width="60" height="30" as="geometry"/>
                </mxCell>
                <mxCell id="55" value="Is described on" style="text;html=1;align=center;verticalAlign=middle;whiteSpace=wrap;rounded=0;labelBackgroundColor=none;labelBorderColor=none;fontSize=10;" vertex="1" parent="1">
                    <mxGeometry x="1044" y="411" width="85" height="30" as="geometry"/>
                </mxCell>
                <mxCell id="56" value="Describes" style="text;html=1;align=center;verticalAlign=middle;whiteSpace=wrap;rounded=0;labelBackgroundColor=none;labelBorderColor=none;fontSize=10;" vertex="1" parent="1">
                    <mxGeometry x="1045" y="455" width="60" height="30" as="geometry"/>
                </mxCell>
                <mxCell id="57" value="Specifies" style="text;html=1;align=center;verticalAlign=middle;whiteSpace=wrap;rounded=0;labelBackgroundColor=none;labelBorderColor=none;fontSize=10;" vertex="1" parent="1">
                    <mxGeometry x="1044" y="588.5" width="60" height="30" as="geometry"/>
                </mxCell>
                <mxCell id="58" value="Specified on" style="text;html=1;align=center;verticalAlign=middle;whiteSpace=wrap;rounded=0;labelBackgroundColor=none;labelBorderColor=none;fontSize=10;" vertex="1" parent="1">
                    <mxGeometry x="1050" y="634" width="60" height="30" as="geometry"/>
                </mxCell>
                <mxCell id="61" value="" style="fontSize=12;html=1;endArrow=none;startArrow=ERmandOne;fontColor=#000000;entryX=1;entryY=0.5;entryDx=0;entryDy=0;exitX=0;exitY=0.75;exitDx=0;exitDy=0;edgeStyle=elbowEdgeStyle;" edge="1" parent="1" source="-JPUo0-ZmxXkv4KaRfed-33" target="59">
                    <mxGeometry width="100" height="100" relative="1" as="geometry">
                        <mxPoint x="959" y="727" as="sourcePoint"/>
                        <mxPoint x="939" y="727" as="targetPoint"/>
                    </mxGeometry>
                </mxCell>
                <mxCell id="59" value="Available" style="text;html=1;align=center;verticalAlign=middle;whiteSpace=wrap;rounded=0;labelBackgroundColor=none;labelBorderColor=none;fontSize=10;" vertex="1" parent="1">
                    <mxGeometry x="895" y="718" width="45" height="30" as="geometry"/>
                </mxCell>
                <mxCell id="64" value="" style="fontSize=12;html=1;endArrow=none;startArrow=ERmandOne;fontColor=#000000;entryX=0;entryY=0.5;entryDx=0;entryDy=0;exitX=1;exitY=0.5;exitDx=0;exitDy=0;edgeStyle=elbowEdgeStyle;" edge="1" parent="1" source="-JPUo0-ZmxXkv4KaRfed-37" target="62">
                    <mxGeometry width="100" height="100" relative="1" as="geometry">
                        <mxPoint x="563" y="748.75" as="sourcePoint"/>
                        <mxPoint x="650" y="723.75" as="targetPoint"/>
                    </mxGeometry>
                </mxCell>
                <mxCell id="62" value="Stores" style="text;html=1;align=center;verticalAlign=middle;whiteSpace=wrap;rounded=0;labelBackgroundColor=none;labelBorderColor=none;fontSize=10;" vertex="1" parent="1">
                    <mxGeometry x="613" y="710.75" width="39" height="30" as="geometry"/>
                </mxCell>
                <mxCell id="66" value="" style="fontSize=12;html=1;endArrow=none;startArrow=ERmandOne;fontColor=#FFFFFF;exitX=0.5;exitY=0;exitDx=0;exitDy=0;edgeStyle=elbowEdgeStyle;elbow=vertical;entryX=1;entryY=0.5;entryDx=0;entryDy=0;" edge="1" parent="1" source="-JPUo0-ZmxXkv4KaRfed-63" target="65">
                    <mxGeometry width="100" height="100" relative="1" as="geometry">
                        <mxPoint x="790" y="665.5" as="sourcePoint"/>
                        <mxPoint x="637" y="607" as="targetPoint"/>
                        <Array as="points">
                            <mxPoint x="579" y="608"/>
                        </Array>
                    </mxGeometry>
                </mxCell>
                <mxCell id="65" value="Inventory changes" style="text;html=1;align=center;verticalAlign=middle;whiteSpace=wrap;rounded=0;labelBackgroundColor=none;labelBorderColor=none;fontSize=10;" vertex="1" parent="1">
                    <mxGeometry x="537.5" y="591.5" width="85" height="30" as="geometry"/>
                </mxCell>
                <mxCell id="70" value="" style="fontSize=12;html=1;endArrow=none;startArrow=ERmandOne;fontColor=#000000;exitX=0.75;exitY=1;exitDx=0;exitDy=0;entryX=0.75;entryY=0;entryDx=0;entryDy=0;edgeStyle=orthogonalEdgeStyle;" edge="1" parent="1" source="-JPUo0-ZmxXkv4KaRfed-4" target="68">
                    <mxGeometry width="100" height="100" relative="1" as="geometry">
                        <mxPoint x="208.49999999999977" y="234" as="sourcePoint"/>
                        <mxPoint x="195.5" y="303.5" as="targetPoint"/>
                    </mxGeometry>
                </mxCell>
                <mxCell id="68" value="Happens" style="text;html=1;align=center;verticalAlign=middle;whiteSpace=wrap;rounded=0;labelBackgroundColor=none;labelBorderColor=none;fontSize=10;" vertex="1" parent="1">
                    <mxGeometry x="176" y="254" width="49" height="15" as="geometry"/>
                </mxCell>
                <mxCell id="71" value="" style="fontSize=12;html=1;endArrow=ERzeroToMany;endFill=1;fontColor=#FFFFFF;elbow=vertical;exitX=0.75;exitY=1;exitDx=0;exitDy=0;edgeStyle=orthogonalEdgeStyle;entryX=0.25;entryY=0;entryDx=0;entryDy=0;" edge="1" parent="1" source="68" target="-JPUo0-ZmxXkv4KaRfed-24">
                    <mxGeometry width="100" height="100" relative="1" as="geometry">
                        <mxPoint x="541" y="383" as="sourcePoint"/>
                        <mxPoint x="165" y="291" as="targetPoint"/>
                    </mxGeometry>
                </mxCell>
                <mxCell id="72" value="" style="fontSize=12;html=1;endArrow=ERoneToMany;startArrow=ERzeroToOne;fontColor=#FFFFFF;exitX=0;exitY=0.75;exitDx=0;exitDy=0;entryX=1;entryY=0.75;entryDx=0;entryDy=0;edgeStyle=elbowEdgeStyle;" edge="1" parent="1" source="-JPUo0-ZmxXkv4KaRfed-39" target="-JPUo0-ZmxXkv4KaRfed-4">
                    <mxGeometry width="100" height="100" relative="1" as="geometry">
                        <mxPoint x="264" y="224" as="sourcePoint"/>
                        <mxPoint x="364" y="124" as="targetPoint"/>
                    </mxGeometry>
                </mxCell>
                <mxCell id="75" value="DepartmentManager" style="swimlane;childLayout=stackLayout;horizontal=1;startSize=50;horizontalStack=0;rounded=1;fontSize=14;fontStyle=0;strokeWidth=2;resizeParent=0;resizeLast=1;shadow=0;dashed=0;align=center;arcSize=4;whiteSpace=wrap;html=1;fillColor=#1ba1e2;strokeColor=#006EAF;fontColor=#ffffff;" vertex="1" parent="1">
                    <mxGeometry x="254" y="53" width="170" height="120" as="geometry"/>
                </mxCell>
                <mxCell id="76" value="&lt;div&gt;# ManagerID&lt;/div&gt;&lt;div&gt;&lt;div&gt;* ManagerStartDate&lt;/div&gt;&lt;div&gt;&lt;span style=&quot;background-color: initial;&quot;&gt;ManagerEndDate&lt;/span&gt;&lt;/div&gt;&lt;/div&gt;" style="align=left;strokeColor=none;fillColor=none;spacingLeft=4;fontSize=12;verticalAlign=top;resizable=0;rotatable=0;part=1;html=1;" vertex="1" parent="75">
                    <mxGeometry y="50" width="170" height="70" as="geometry"/>
                </mxCell>
                <mxCell id="81" value="" style="fontSize=12;html=1;endArrow=none;startArrow=ERmandOne;fontColor=#FFFFFF;exitX=-0.008;exitY=0.56;exitDx=0;exitDy=0;entryX=1;entryY=0.5;entryDx=0;entryDy=0;exitPerimeter=0;edgeStyle=orthogonalEdgeStyle;" edge="1" parent="1" source="-JPUo0-ZmxXkv4KaRfed-27" target="80">
                    <mxGeometry width="100" height="100" relative="1" as="geometry">
                        <mxPoint x="703.6400000000001" y="268.4000000000001" as="sourcePoint"/>
                        <mxPoint x="565" y="328.375" as="targetPoint"/>
                    </mxGeometry>
                </mxCell>
                <mxCell id="80" value="Changes" style="text;html=1;align=center;verticalAlign=middle;whiteSpace=wrap;rounded=0;labelBackgroundColor=none;labelBorderColor=none;fontSize=10;" vertex="1" parent="1">
                    <mxGeometry x="598" y="260" width="49" height="30" as="geometry"/>
                </mxCell>
                <mxCell id="82" value="Changes" style="text;html=1;align=center;verticalAlign=middle;whiteSpace=wrap;rounded=0;labelBackgroundColor=none;labelBorderColor=none;fontSize=10;" vertex="1" parent="1">
                    <mxGeometry x="553" y="224" width="49" height="30" as="geometry"/>
                </mxCell>
                <mxCell id="83" value="" style="edgeStyle=elbowEdgeStyle;fontSize=12;html=1;endArrow=ERoneToMany;startArrow=ERmandOne;fontColor=#000000;exitX=0.5;exitY=0;exitDx=0;exitDy=0;elbow=vertical;entryX=1;entryY=0.25;entryDx=0;entryDy=0;" edge="1" parent="1" source="-JPUo0-ZmxXkv4KaRfed-38" target="75">
                    <mxGeometry width="100" height="100" relative="1" as="geometry">
                        <mxPoint x="501" y="18" as="sourcePoint"/>
                        <mxPoint x="463" y="68" as="targetPoint"/>
                        <Array as="points">
                            <mxPoint x="491" y="83"/>
                        </Array>
                    </mxGeometry>
                </mxCell>
                <mxCell id="84" value="Managed by" style="text;html=1;align=center;verticalAlign=middle;whiteSpace=wrap;rounded=0;labelBackgroundColor=none;labelBorderColor=none;fontSize=10;" vertex="1" parent="1">
                    <mxGeometry x="562.5" y="76" width="60" height="30" as="geometry"/>
                </mxCell>
                <mxCell id="85" value="Manages" style="text;html=1;align=center;verticalAlign=middle;whiteSpace=wrap;rounded=0;labelBackgroundColor=none;labelBorderColor=none;fontSize=10;" vertex="1" parent="1">
                    <mxGeometry x="421" y="55" width="60" height="30" as="geometry"/>
                </mxCell>
                <mxCell id="87" value="" style="fontSize=12;html=1;endArrow=ERzeroToMany;startArrow=none;fontColor=#FFFFFF;entryX=0.75;entryY=0;entryDx=0;entryDy=0;edgeStyle=elbowEdgeStyle;elbow=vertical;exitX=0;exitY=0.5;exitDx=0;exitDy=0;" edge="1" parent="1" source="88" target="75">
                    <mxGeometry width="100" height="100" relative="1" as="geometry">
                        <mxPoint x="591" y="28" as="sourcePoint"/>
                        <mxPoint x="638" y="47.5" as="targetPoint"/>
                        <Array as="points">
                            <mxPoint x="511" y="33"/>
                        </Array>
                    </mxGeometry>
                </mxCell>
                <mxCell id="90" value="" style="fontSize=12;html=1;endArrow=none;startArrow=ERmandOne;fontColor=#FFFFFF;entryX=1;entryY=0.5;entryDx=0;entryDy=0;exitX=0.5;exitY=0;exitDx=0;exitDy=0;edgeStyle=elbowEdgeStyle;elbow=vertical;" edge="1" parent="1" source="-JPUo0-ZmxXkv4KaRfed-26" target="88">
                    <mxGeometry width="100" height="100" relative="1" as="geometry">
                        <mxPoint x="790" y="112" as="sourcePoint"/>
                        <mxPoint x="381.4999999999998" y="53" as="targetPoint"/>
                        <Array as="points">
                            <mxPoint x="740" y="32"/>
                        </Array>
                    </mxGeometry>
                </mxCell>
                <mxCell id="88" value="Is manager" style="text;html=1;align=center;verticalAlign=middle;whiteSpace=wrap;rounded=0;labelBackgroundColor=none;labelBorderColor=none;fontSize=10;" vertex="1" parent="1">
                    <mxGeometry x="624" y="18" width="58" height="30" as="geometry"/>
                </mxCell>
            </root>
        </mxGraphModel>
    </diagram>
</mxfile>